<svg width="560" height="28" viewBox="0 0 560 28" fill="none" xmlns="http://www.w3.org/2000/svg">
<rect width="14" height="14" fill="white" fill-opacity="0.18"/>
<rect x="14" y="14" width="14" height="14" fill="white" fill-opacity="0.18"/>
<rect x="28" width="14" height="14" fill="white" fill-opacity="0.18"/>
<rect x="42" y="14" width="14" height="14" fill="white" fill-opacity="0.18"/>
<rect x="56" width="14" height="14" fill="white" fill-opacity="0.18"/>
<rect x="70" y="14" width="14" height="14" fill="white" fill-opacity="0.18"/>
<rect x="84" width="14" height="14" fill="white" fill-opacity="0.18"/>
<rect x="98" y="14" width="14" height="14" fill="white" fill-opacity="0.18"/>
<rect x="112" width="14" height="14" fill="white" fill-opacity="0.18"/>
<rect x="126" y="14" width="14" height="14" fill="white" fill-opacity="0.18"/>
<rect x="140" width="14" height="14" fill="white" fill-opacity="0.18"/>
<rect x="154" y="14" width="14" height="14" fill="white" fill-opacity="0.18"/>
<rect x="168" width="14" height="14" fill="white" fill-opacity="0.18"/>
<rect x="182" y="14" width="14" height="14" fill="white" fill-opacity="0.18"/>
<rect x="196" width="14" height="14" fill="white" fill-opacity="0.18"/>
<rect x="210" y="14" width="14" height="14" fill="white" fill-opacity="0.18"/>
<rect x="224" width="14" height="14" fill="white" fill-opacity="0.18"/>
<rect x="238" y="14" width="14" height="14" fill="white" fill-opacity="0.18"/>
<rect x="252" width="14" height="14" fill="white" fill-opacity="0.18"/>
<rect x="266" y="14" width="14" height="14" fill="white" fill-opacity="0.18"/>
<rect x="280" width="14" height="14" fill="white" fill-opacity="0.18"/>
<rect x="294" y="14" width="14" height="14" fill="white" fill-opacity="0.18"/>
<rect x="308" width="14" height="14" fill="white" fill-opacity="0.18"/>
<rect x="322" y="14" width="14" height="14" fill="white" fill-opacity="0.18"/>
<rect x="336" width="14" height="14" fill="white" fill-opacity="0.18"/>
<rect x="350" y="14" width="14" height="14" fill="white" fill-opacity="0.18"/>
<rect x="364" width="14" height="14" fill="white" fill-opacity="0.18"/>
<rect x="378" y="14" width="14" height="14" fill="white" fill-opacity="0.18"/>
<rect x="392" width="14" height="14" fill="white" fill-opacity="0.18"/>
<rect x="406" y="14" width="14" height="14" fill="white" fill-opacity="0.18"/>
<rect x="420" width="14" height="14" fill="white" fill-opacity="0.18"/>
<rect x="434" y="14" width="14" height="14" fill="white" fill-opacity="0.18"/>
<rect x="448" width="14" height="14" fill="white" fill-opacity="0.18"/>
<rect x="462" y="14" width="14" height="14" fill="white" fill-opacity="0.18"/>
<rect x="476" width="14" height="14" fill="white" fill-opacity="0.18"/>
<rect x="490" y="14" width="14" height="14" fill="white" fill-opacity="0.18"/>
<rect x="504" width="14" height="14" fill="white" fill-opacity="0.18"/>
<rect x="518" y="14" width="14" height="14" fill="white" fill-opacity="0.18"/>
<rect x="532" width="14" height="14" fill="white" fill-opacity="0.18"/>
<rect x="546" y="14" width="14" height="14" fill="white" fill-opacity="0.18"/>
</svg>
