<svg width="14" height="14" viewBox="0 0 14 14" fill="none" xmlns="http://www.w3.org/2000/svg">
<path d="M11.4544 2.93021C10.6112 2.54215 9.72115 2.26685 8.80681 2.11133C8.6817 2.33618 8.56849 2.56752 8.46766 2.80438C7.49372 2.65684 6.50329 2.65684 5.52934 2.80438C5.42847 2.56754 5.31526 2.33621 5.19019 2.11133C4.27527 2.26816 3.38457 2.54411 2.54056 2.93224C0.864983 5.42437 0.41076 7.85461 0.637871 10.2503C1.61913 10.9791 2.71744 11.5334 3.88506 11.8891C4.14797 11.5336 4.38062 11.1565 4.58052 10.7617C4.20083 10.6192 3.83435 10.4433 3.48534 10.2361C3.5772 10.1691 3.66703 10.1001 3.75384 10.0332C4.76938 10.5133 5.87778 10.7622 7.00002 10.7622C8.12225 10.7622 9.23066 10.5133 10.2462 10.0332C10.334 10.1052 10.4238 10.1742 10.5147 10.2361C10.165 10.4436 9.79786 10.6198 9.41749 10.7627C9.61715 11.1573 9.84981 11.5341 10.1129 11.8891C11.2815 11.5349 12.3807 10.9808 13.3621 10.2513C13.6286 7.47308 12.9069 5.06516 11.4544 2.93021ZM4.8682 8.77699C4.23531 8.77699 3.71245 8.19961 3.71245 7.48931C3.71245 6.77901 4.21715 6.19657 4.86618 6.19657C5.51521 6.19657 6.03404 6.77901 6.02293 7.48931C6.01183 8.19961 5.51319 8.77699 4.8682 8.77699ZM9.13184 8.77699C8.49794 8.77699 7.9771 8.19961 7.9771 7.48931C7.9771 6.77901 8.48179 6.19657 9.13184 6.19657C9.78188 6.19657 10.2966 6.77901 10.2855 7.48931C10.2744 8.19961 9.77683 8.77699 9.13184 8.77699Z" fill="#ECFDF5" fill-opacity="0.3"/>
</svg>
