<svg width="40" height="40" viewBox="0 0 40 40" fill="none" xmlns="http://www.w3.org/2000/svg">
<g clip-path="url(#clip0_10487_4800)">
<path d="M20 0C31.0457 0 40 8.9543 40 20C40 31.0457 31.0457 40 20 40C19.8385 40 19.7115 39.8504 19.7079 39.6889C19.706 39.6024 19.701 39.5014 19.695 39.3791C19.5231 35.9072 20.3412 29.4288 24.8761 26.5796C24.9929 26.5063 25.0513 26.4695 25.1283 26.4375C25.2052 26.4055 25.2888 26.3861 25.4555 26.3474C29.0374 25.5159 33.9988 23.1895 35.1693 17.5479C35.2994 16.9212 35.3643 16.608 35.1987 16.2914C35.0331 15.9748 34.7082 15.8363 34.0585 15.5595C32.3802 14.8446 30.1729 13.9338 28.0836 13.1339C15.8407 8.44669 9.71934 6.1031 9.64599 6.0776C9.06933 5.87713 10.0335 6.19011 9.44906 6.01367C9.37472 5.99124 29.728 11.4516 21.5866 9.26746C21.2405 9.17457 20.8761 9.125 20.5 9.125C18.8034 9.125 17.346 10.1337 16.7125 11.5754C16.5679 11.9045 16.2345 12.125 15.875 12.125C13.5969 12.125 11.75 13.9439 11.75 16.1875C11.75 16.329 11.6216 16.4401 11.4816 16.4195C11.2836 16.3902 11.0811 16.375 10.875 16.375C8.59682 16.375 6.75 18.2219 6.75 20.5C6.75 20.8555 6.50275 21.1777 6.16156 21.2774C4.50147 21.7625 3.42805 23.349 3.125 25.1875C2.8227 27.0215 0.967879 26.4394 0.539025 24.6309C0.186587 23.1445 0 21.5941 0 20C0 8.9543 8.9543 0 20 0Z" fill="#05D09B"/>
<path d="M19.3987 15.6333C19.5083 15.6243 19.5708 15.7531 19.4998 15.8373C18.3848 17.1599 16.7724 19.6119 15.3214 19.1436C13.7076 18.6229 16.2024 15.8973 19.3987 15.6333Z" fill="#05D09B"/>
<path d="M33.2526 16.1236C33.4267 15.9876 33.6049 16.0634 33.9609 16.2146C34.0612 16.2573 34.1589 16.2988 34.2532 16.3392C34.4954 16.4427 34.6164 16.4946 34.6789 16.6056C34.7411 16.7166 34.7234 16.8408 34.6876 17.089C34.6295 17.492 34.547 17.8746 34.4429 18.2376C34.2985 18.7409 34.2264 18.9928 34.0452 18.9994C33.8641 19.0061 33.7702 18.7514 33.5825 18.2422C33.405 17.7607 33.2319 17.2258 33.1551 16.7424C33.1041 16.4206 33.0785 16.2598 33.2526 16.1236Z" fill="#05D09B"/>
<path d="M23.875 15.125C24.4273 15.125 24.875 15.5727 24.875 16.125C24.875 16.6772 24.4273 17.125 23.875 17.125C23.3228 17.125 22.875 16.6772 22.875 16.125C22.875 15.5727 23.3228 15.125 23.875 15.125Z" fill="#05D09B"/>
</g>
<defs>
<clipPath id="clip0_10487_4800">
<rect width="40" height="40" fill="white"/>
</clipPath>
</defs>
</svg>
